<svg xmlns="http://www.w3.org/2000/svg" viewBox="0 0 1920 1080" font-family="Inter, -apple-system, 'SF Pro Display', system-ui, sans-serif">
  <!-- ─── Linear design tokens ─── -->
  <defs>
    <pattern id="dots" width="24" height="24" patternUnits="userSpaceOnUse">
      <circle cx="0" cy="0" r="0.7" fill="#3a3a44" fill-opacity="0.35"/>
    </pattern>

    <!-- arrowheads — thin open style -->
    <marker id="arrow-lavender" viewBox="0 0 10 10" refX="9" refY="5" markerWidth="8" markerHeight="8" orient="auto-start-reverse">
      <path d="M 0 1 L 9 5 L 0 9" fill="none" stroke="#5e6ad2" stroke-width="1.2"/>
    </marker>
    <marker id="arrow-green" viewBox="0 0 10 10" refX="9" refY="5" markerWidth="8" markerHeight="8" orient="auto-start-reverse">
      <path d="M 0 1 L 9 5 L 0 9" fill="none" stroke="#27a644" stroke-width="1.2"/>
    </marker>
    <marker id="arrow-amber" viewBox="0 0 10 10" refX="9" refY="5" markerWidth="8" markerHeight="8" orient="auto-start-reverse">
      <path d="M 0 1 L 9 5 L 0 9" fill="none" stroke="#d8a050" stroke-width="1.2"/>
    </marker>
    <marker id="arrow-gray" viewBox="0 0 10 10" refX="9" refY="5" markerWidth="7" markerHeight="7" orient="auto-start-reverse">
      <path d="M 0 1 L 9 5 L 0 9" fill="none" stroke="#62666d" stroke-width="1.1"/>
    </marker>
  </defs>

  <!-- ─── Background ─── -->
  <rect width="1920" height="1080" fill="#010102"/>
  <rect width="1920" height="1080" fill="url(#dots)"/>

  <!-- ─── Zone dividers ─── -->
  <line x1="660" y1="80" x2="660" y2="1000" stroke="#23252a" stroke-width="1"/>
  <line x1="1260" y1="80" x2="1260" y2="1000" stroke="#23252a" stroke-width="1"/>

  <!-- ═════════════════════════════════════════════════════════════
       ZONE 1 — RENDERER
       ═════════════════════════════════════════════════════════════ -->

  <!-- Zone chip 01 -->
  <rect x="80" y="80" width="28" height="28" rx="6" fill="#5e6ad2"/>
  <text x="94" y="100" font-size="14" font-weight="600" fill="#ffffff" text-anchor="middle" font-family="ui-monospace, 'SF Mono', monospace">01</text>

  <!-- Zone eyebrow -->
  <text x="124" y="100" font-size="11" font-weight="500" fill="#62666d" letter-spacing="2.4">RENDERER · REACT + ELECTRON</text>

  <!-- Titlebar with page switcher -->
  <rect x="80" y="140" width="560" height="60" rx="12" fill="#0f1011" stroke="#23252a" stroke-width="1"/>
  <text x="100" y="170" font-size="12" font-weight="500" fill="#8a8f98">Titlebar</text>
  <!-- Page tabs -->
  <g transform="translate(100, 178)">
    <rect x="0" y="0" width="84" height="20" rx="4" fill="#18191a"/>
    <text x="42" y="14" font-size="11" font-weight="500" fill="#f7f8f8" text-anchor="middle">Workspace</text>
    <line x1="0" y1="20" x2="84" y2="20" stroke="#5e6ad2" stroke-width="2"/>

    <rect x="92" y="0" width="68" height="20" rx="4" fill="transparent"/>
    <text x="126" y="14" font-size="11" fill="#8a8f98" text-anchor="middle">Schedule</text>

    <rect x="168" y="0" width="68" height="20" rx="4" fill="transparent"/>
    <text x="202" y="14" font-size="11" fill="#8a8f98" text-anchor="middle">Timeline</text>

    <rect x="244" y="0" width="44" height="20" rx="4" fill="transparent"/>
    <text x="266" y="14" font-size="11" fill="#8a8f98" text-anchor="middle">Tree</text>
  </g>

  <!-- TreeSidebar -->
  <rect x="80" y="220" width="140" height="540" rx="12" fill="#0f1011" stroke="#23252a" stroke-width="1"/>
  <text x="98" y="244" font-size="11" font-weight="500" fill="#62666d" letter-spacing="0.6">TREE SIDEBAR</text>
  <g transform="translate(98, 268)" font-size="11" fill="#d0d6e0">
    <text y="0">▾ Project A</text>
    <text x="14" y="20" fill="#8a8f98">▾ Phase 1</text>
    <text x="28" y="40" fill="#8a8f98">○ task a</text>
    <text x="28" y="60" fill="#5e6ad2">▶ task b</text>
    <text x="28" y="80" fill="#27a644">✓ task c</text>
    <text x="14" y="104" fill="#8a8f98">○ Phase 2</text>
  </g>

  <!-- MainPanel (large central card) -->
  <rect x="234" y="220" width="406" height="540" rx="12" fill="#0f1011" stroke="#23252a" stroke-width="1"/>
  <text x="252" y="244" font-size="11" font-weight="500" fill="#62666d" letter-spacing="0.6">MAIN PANEL</text>

  <!-- HierarchyView inner box -->
  <rect x="252" y="260" width="370" height="138" rx="8" fill="#141516" stroke="#23252a" stroke-width="1"/>
  <text x="266" y="280" font-size="11" font-weight="500" fill="#d0d6e0">HierarchyView · Project ▸ Phase ▸ Task</text>

  <!-- progress stack bar -->
  <rect x="266" y="294" width="340" height="4" rx="2" fill="#18191a"/>
  <rect x="266" y="294" width="120" height="4" rx="2" fill="#27a644"/>
  <rect x="386" y="294" width="80"  height="4" fill="#5e6ad2"/>
  <rect x="466" y="294" width="50"  height="4" fill="#d8a050"/>

  <!-- task rows -->
  <g transform="translate(266, 312)" font-size="10.5">
    <circle cx="6" cy="6" r="3" fill="#27a644"/>
    <text x="18" y="9" fill="#d0d6e0">✓ Linear tokens</text>
    <text x="320" y="9" fill="#62666d" text-anchor="end">100%</text>

    <circle cx="6" cy="26" r="3" fill="#5e6ad2"/>
    <text x="18" y="29" fill="#d0d6e0">▶ Hierarchy cards</text>
    <text x="320" y="29" fill="#5e6ad2" text-anchor="end">62%</text>

    <circle cx="6" cy="46" r="3" fill="#d8a050"/>
    <text x="18" y="49" fill="#d0d6e0">⌛ Mode pills</text>
    <text x="320" y="49" fill="#d8a050" text-anchor="end">awaits</text>

    <circle cx="6" cy="66" r="3" fill="#62666d"/>
    <text x="18" y="69" fill="#8a8f98">○ Templates</text>
    <text x="320" y="69" fill="#62666d" text-anchor="end">queued</text>
  </g>

  <!-- ChatView inner box -->
  <rect x="252" y="416" width="370" height="216" rx="8" fill="#141516" stroke="#23252a" stroke-width="1"/>
  <text x="266" y="436" font-size="11" font-weight="500" fill="#d0d6e0">ChatView</text>

  <!-- assistant message (left aligned) -->
  <text x="266" y="460" font-size="11.5" fill="#f7f8f8">Linear 토큰을 globals.css 에 적용했어.</text>
  <text x="266" y="476" font-size="11.5" fill="#f7f8f8">↳ Edit globals.css</text>

  <!-- user bubble (right aligned) -->
  <rect x="402" y="488" width="206" height="32" rx="12" fill="#141516" stroke="#23252a" stroke-width="1"/>
  <text x="418" y="508" font-size="11.5" fill="#f7f8f8">다음 단계로 진행해줘</text>

  <!-- approval card -->
  <rect x="252" y="534" width="370" height="86" rx="12" fill="#141516" stroke="#d8a050" stroke-width="1"/>
  <text x="270" y="556" font-size="12" font-weight="500" fill="#d8a050">⚠ 승인이 필요한 작업</text>
  <rect x="266" y="566" width="342" height="22" rx="4" fill="#010102" stroke="#23252a" stroke-width="1"/>
  <text x="276" y="581" font-size="10.5" fill="#8a8f98" font-family="ui-monospace, 'SF Mono', monospace">Edit settings.json — Allow this action? (y/N)</text>
  <rect x="478" y="596" width="62" height="20" rx="6" fill="#5e6ad2"/>
  <text x="509" y="610" font-size="11" font-weight="500" fill="#ffffff" text-anchor="middle">수락</text>
  <rect x="548" y="596" width="62" height="20" rx="6" fill="transparent" stroke="#23252a" stroke-width="1"/>
  <text x="579" y="610" font-size="11" font-weight="500" fill="#8a8f98" text-anchor="middle">거부</text>

  <!-- Chat input -->
  <rect x="252" y="640" width="370" height="34" rx="8" fill="#0f1011" stroke="#23252a" stroke-width="1"/>
  <text x="268" y="660" font-size="11" fill="#62666d">메시지 입력…</text>
  <rect x="568" y="646" width="46" height="22" rx="6" fill="#5e6ad2"/>
  <text x="591" y="661" font-size="11" font-weight="500" fill="#ffffff" text-anchor="middle">Send</text>

  <!-- StatusRail -->
  <rect x="252" y="690" width="370" height="58" rx="8" fill="#141516" stroke="#23252a" stroke-width="1"/>
  <text x="266" y="708" font-size="10.5" font-weight="500" fill="#62666d" letter-spacing="0.6">STATUS RAIL · 3 active · 1 review</text>
  <g transform="translate(266, 716)">
    <rect x="0" y="0" width="100" height="22" rx="6" fill="#0f1011" stroke="#23252a" stroke-width="1"/>
    <circle cx="10" cy="11" r="3" fill="#5e6ad2"/>
    <text x="18" y="15" font-size="10.5" fill="#d0d6e0">card grid</text>

    <rect x="108" y="0" width="100" height="22" rx="6" fill="#0f1011" stroke="#23252a" stroke-width="1"/>
    <circle cx="118" cy="11" r="3" fill="#d8a050"/>
    <text x="126" y="15" font-size="10.5" fill="#d0d6e0">approval</text>

    <rect x="216" y="0" width="116" height="22" rx="6" fill="#0f1011" stroke="#23252a" stroke-width="1"/>
    <circle cx="226" cy="11" r="3" fill="#27a644"/>
    <text x="234" y="15" font-size="10.5" fill="#d0d6e0">linear tokens</text>
  </g>

  <!-- ConnectionStatus indicator (bottom-right of zone) -->
  <rect x="496" y="952" width="144" height="28" rx="14" fill="#0f1011" stroke="#23252a" stroke-width="1"/>
  <circle cx="510" cy="966" r="4" fill="#27a644"/>
  <text x="522" y="970" font-size="11" font-weight="500" fill="#d0d6e0">venus01-nv</text>
  <text x="610" y="970" font-size="10" fill="#62666d" text-anchor="end" font-family="ui-monospace, monospace">12s</text>
  <text x="630" y="970" font-size="10" fill="#62666d" text-anchor="end">·</text>

  <!-- ═════════════════════════════════════════════════════════════
       ZONE 2 — MAIN PROCESS
       ═════════════════════════════════════════════════════════════ -->

  <!-- Zone chip 02 -->
  <rect x="684" y="80" width="28" height="28" rx="6" fill="#5e6ad2"/>
  <text x="698" y="100" font-size="14" font-weight="600" fill="#ffffff" text-anchor="middle" font-family="ui-monospace, 'SF Mono', monospace">02</text>
  <text x="728" y="100" font-size="11" font-weight="500" fill="#62666d" letter-spacing="2.4">MAIN PROCESS · ELECTRON</text>

  <!-- IPC channels label -->
  <text x="684" y="148" font-size="11" font-weight="500" fill="#8a8f98" font-family="ui-monospace, 'SF Mono', monospace">IPC channels</text>
  <text x="684" y="166" font-size="10.5" fill="#62666d" font-family="ui-monospace, 'SF Mono', monospace">task:status · task:log · task:plan</text>
  <text x="684" y="180" font-size="10.5" fill="#62666d" font-family="ui-monospace, 'SF Mono', monospace">task:permission_request · connection:status</text>

  <!-- Vertical IPC bus -->
  <line x1="970" y1="220" x2="970" y2="900" stroke="#5e6ad2" stroke-width="1.4"/>
  <!-- bus dots -->
  <circle cx="970" cy="270" r="3" fill="#5e6ad2"/>
  <circle cx="970" cy="370" r="3" fill="#5e6ad2"/>
  <circle cx="970" cy="470" r="3" fill="#5e6ad2"/>
  <circle cx="970" cy="570" r="3" fill="#5e6ad2"/>
  <circle cx="970" cy="670" r="3" fill="#5e6ad2"/>
  <circle cx="970" cy="770" r="3" fill="#5e6ad2"/>
  <circle cx="970" cy="870" r="3" fill="#5e6ad2"/>

  <!-- LEFT side service boxes -->
  <g>
    <!-- ConnectionManager -->
    <line x1="824" y1="270" x2="970" y2="270" stroke="#23252a" stroke-width="1"/>
    <rect x="684" y="244" width="140" height="54" rx="8" fill="#141516" stroke="#23252a" stroke-width="1"/>
    <text x="754" y="266" font-size="11.5" font-weight="500" fill="#f7f8f8" text-anchor="middle" font-family="ui-monospace, 'SF Mono', monospace">ConnectionManager</text>
    <text x="754" y="284" font-size="10" fill="#62666d" text-anchor="middle">heartbeat · 30s</text>

    <!-- AgentService -->
    <line x1="824" y1="370" x2="970" y2="370" stroke="#23252a" stroke-width="1"/>
    <rect x="684" y="344" width="140" height="54" rx="8" fill="#141516" stroke="#23252a" stroke-width="1"/>
    <text x="754" y="366" font-size="11.5" font-weight="500" fill="#f7f8f8" text-anchor="middle" font-family="ui-monospace, 'SF Mono', monospace">AgentService</text>
    <text x="754" y="384" font-size="10" fill="#62666d" text-anchor="middle">PTY + stream-json</text>

    <!-- PlanSyncService -->
    <line x1="824" y1="470" x2="970" y2="470" stroke="#23252a" stroke-width="1"/>
    <rect x="684" y="444" width="140" height="54" rx="8" fill="#141516" stroke="#23252a" stroke-width="1"/>
    <text x="754" y="466" font-size="11.5" font-weight="500" fill="#f7f8f8" text-anchor="middle" font-family="ui-monospace, 'SF Mono', monospace">PlanSyncService</text>
    <text x="754" y="484" font-size="10" fill="#62666d" text-anchor="middle">debounced parse 1.5s</text>

    <!-- DataStore -->
    <line x1="824" y1="570" x2="970" y2="570" stroke="#23252a" stroke-width="1"/>
    <rect x="684" y="544" width="140" height="54" rx="8" fill="#141516" stroke="#23252a" stroke-width="1"/>
    <text x="754" y="566" font-size="11.5" font-weight="500" fill="#f7f8f8" text-anchor="middle" font-family="ui-monospace, 'SF Mono', monospace">DataStore</text>
    <text x="754" y="584" font-size="10" fill="#62666d" text-anchor="middle">JSON persistence</text>
  </g>

  <!-- RIGHT side service boxes -->
  <g>
    <!-- WorkflowFileService -->
    <line x1="970" y1="270" x2="1116" y2="270" stroke="#23252a" stroke-width="1"/>
    <rect x="1116" y="244" width="140" height="54" rx="8" fill="#141516" stroke="#23252a" stroke-width="1"/>
    <text x="1186" y="266" font-size="11.5" font-weight="500" fill="#f7f8f8" text-anchor="middle" font-family="ui-monospace, 'SF Mono', monospace">WorkflowFileService</text>
    <text x="1186" y="284" font-size="10" fill="#62666d" text-anchor="middle">PLAN · CHECKLIST · NOTES</text>

    <!-- SchedulingService -->
    <line x1="970" y1="370" x2="1116" y2="370" stroke="#23252a" stroke-width="1"/>
    <rect x="1116" y="344" width="140" height="54" rx="8" fill="#141516" stroke="#23252a" stroke-width="1"/>
    <text x="1186" y="366" font-size="11.5" font-weight="500" fill="#f7f8f8" text-anchor="middle" font-family="ui-monospace, 'SF Mono', monospace">SchedulingService</text>
    <text x="1186" y="384" font-size="10" fill="#62666d" text-anchor="middle">nice + LLM split</text>

    <!-- permissionDetector -->
    <line x1="970" y1="470" x2="1116" y2="470" stroke="#23252a" stroke-width="1"/>
    <rect x="1116" y="444" width="140" height="54" rx="8" fill="#141516" stroke="#23252a" stroke-width="1"/>
    <text x="1186" y="466" font-size="11.5" font-weight="500" fill="#f7f8f8" text-anchor="middle" font-family="ui-monospace, 'SF Mono', monospace">permissionDetector</text>
    <text x="1186" y="484" font-size="10" fill="#62666d" text-anchor="middle">regex on PTY</text>

    <!-- LocalService / SSHService -->
    <line x1="970" y1="570" x2="1116" y2="570" stroke="#23252a" stroke-width="1"/>
    <rect x="1116" y="544" width="140" height="54" rx="8" fill="#141516" stroke="#23252a" stroke-width="1"/>
    <text x="1186" y="566" font-size="11.5" font-weight="500" fill="#f7f8f8" text-anchor="middle" font-family="ui-monospace, 'SF Mono', monospace">LocalService</text>
    <text x="1186" y="584" font-size="10" fill="#62666d" text-anchor="middle">+ SSHService</text>
  </g>

  <!-- ═════════════════════════════════════════════════════════════
       ZONE 3 — EXTERNAL
       ═════════════════════════════════════════════════════════════ -->

  <!-- Zone chip 03 -->
  <rect x="1284" y="80" width="28" height="28" rx="6" fill="#5e6ad2"/>
  <text x="1298" y="100" font-size="14" font-weight="600" fill="#ffffff" text-anchor="middle" font-family="ui-monospace, 'SF Mono', monospace">03</text>
  <text x="1328" y="100" font-size="11" font-weight="500" fill="#62666d" letter-spacing="2.4">EXTERNAL · WORKSPACE + CLAUDE</text>

  <!-- Claude CLI -->
  <rect x="1284" y="180" width="556" height="160" rx="12" fill="#0f1011" stroke="#23252a" stroke-width="1"/>
  <text x="1304" y="208" font-size="13" font-weight="500" fill="#f7f8f8" letter-spacing="-0.1">Claude CLI</text>
  <text x="1304" y="226" font-size="11" fill="#8a8f98">remote spawn — dual channel</text>
  <rect x="1304" y="244" width="516" height="76" rx="8" fill="#010102" stroke="#23252a" stroke-width="1"/>
  <text x="1320" y="266" font-size="11" fill="#62666d" font-family="ui-monospace, 'SF Mono', monospace">$ claude -p "{prompt}"</text>
  <text x="1320" y="284" font-size="11" fill="#5e6ad2" font-family="ui-monospace, 'SF Mono', monospace">    --permission-mode bypassPermissions</text>
  <text x="1320" y="302" font-size="11" fill="#5e6ad2" font-family="ui-monospace, 'SF Mono', monospace">    --output-format stream-json --verbose</text>

  <!-- Workspace Filesystem -->
  <rect x="1284" y="372" width="556" height="320" rx="12" fill="#0f1011" stroke="#23252a" stroke-width="1"/>
  <text x="1304" y="400" font-size="13" font-weight="500" fill="#f7f8f8" letter-spacing="-0.1">Workspace Filesystem</text>
  <text x="1304" y="418" font-size="11" fill="#8a8f98">local or via SSH — owned by user, seeded by app</text>
  <g transform="translate(1304, 444)" font-size="11.5" font-family="ui-monospace, 'SF Mono', monospace">
    <text y="0" fill="#d0d6e0">.workanywhere/</text>
    <text x="20" y="22" fill="#5e6ad2">CLAUDE.md</text>
    <text x="80" y="22" fill="#62666d">— workflow guide</text>
    <text x="20" y="44" fill="#d0d6e0">plans/</text>
    <text x="40" y="66" fill="#d0d6e0">&lt;project-slug&gt;/</text>
    <text x="60" y="88" fill="#27a644">PLAN.md</text>
    <text x="60" y="106" fill="#27a644">CHECKLIST.md</text>
    <text x="60" y="124" fill="#27a644">NOTES.md</text>
    <text x="60" y="148" fill="#d0d6e0">&lt;phase-slug&gt;/</text>
    <text x="80" y="170" fill="#27a644">PLAN.md</text>
    <text x="80" y="188" fill="#27a644">CHECKLIST.md</text>
    <text x="80" y="206" fill="#27a644">NOTES.md</text>
    <text x="80" y="230" fill="#d0d6e0">&lt;task-slug&gt;/</text>
    <text x="100" y="252" fill="#27a644">PLAN.md  CHECKLIST.md  NOTES.md</text>
  </g>

  <!-- Anthropic API (cloud shape) -->
  <g transform="translate(1284, 720)">
    <path d="M 60 40 a 30 30 0 0 1 60 0 a 22 22 0 0 1 36 6 a 26 26 0 0 1 -10 50 L 50 96 a 28 28 0 0 1 -8 -54 a 24 24 0 0 1 18 -2 z"
          fill="#0f1011" stroke="#5e6ad2" stroke-width="1.2"/>
    <text x="105" y="76" font-size="13" font-weight="500" fill="#f7f8f8" text-anchor="middle">Anthropic API</text>
    <text x="370" y="60" font-size="11.5" fill="#8a8f98">claude-{model}</text>
    <text x="370" y="78" font-size="11" fill="#62666d">messages.create — only via the CLI binary,</text>
    <text x="370" y="94" font-size="11" fill="#62666d">never invoked directly from the desktop app.</text>
  </g>

  <!-- ═════════════════════════════════════════════════════════════
       ARROWS
       ═════════════════════════════════════════════════════════════ -->

  <!-- (1) MainPanel → Main Process IPC bus (lavender, right) -->
  <path d="M 640 500 C 670 500, 670 470, 700 470" fill="none" stroke="#5e6ad2" stroke-width="1.4" marker-end="url(#arrow-lavender)"/>
  <text x="660" y="488" font-size="10" fill="#5e6ad2" font-family="ui-monospace, monospace">prompt · run · approve</text>

  <!-- (2) Main Process → Renderer (green, left) -->
  <path d="M 700 530 C 670 530, 670 560, 640 560" fill="none" stroke="#27a644" stroke-width="1.4" marker-end="url(#arrow-green)"/>
  <text x="660" y="552" font-size="10" fill="#27a644" font-family="ui-monospace, monospace">stream · plan · heartbeat</text>

  <!-- (8) permissionDetector → ApprovalCard (amber, big arc back to Renderer) -->
  <path d="M 1116 480 C 900 720, 700 700, 626 590" fill="none" stroke="#d8a050" stroke-width="1.2" stroke-dasharray="4 3" marker-end="url(#arrow-amber)"/>
  <text x="900" y="734" font-size="10" fill="#d8a050" font-family="ui-monospace, monospace">task:permission_request</text>

  <!-- (3) AgentService → Claude CLI (lavender) -->
  <path d="M 824 372 C 1100 372, 1140 260, 1284 260" fill="none" stroke="#5e6ad2" stroke-width="1.4" marker-end="url(#arrow-lavender)"/>
  <text x="1080" y="318" font-size="10" fill="#5e6ad2" font-family="ui-monospace, monospace">spawn stream-json + PTY</text>

  <!-- (4) Claude CLI → AgentService (green, return) -->
  <path d="M 1284 290 C 1140 290, 1100 396, 824 396" fill="none" stroke="#27a644" stroke-width="1.4" marker-end="url(#arrow-green)"/>
  <text x="1080" y="354" font-size="10" fill="#27a644" font-family="ui-monospace, monospace">stdout (json) / pty (raw)</text>

  <!-- (5) WorkflowFileService → Workspace FS (gray) -->
  <path d="M 1256 280 C 1270 280, 1280 410, 1284 410" fill="none" stroke="#62666d" stroke-width="1.2" marker-end="url(#arrow-gray)"/>
  <text x="1268" y="354" font-size="10" fill="#8a8f98" font-family="ui-monospace, monospace" transform="rotate(90, 1268, 354)">read · write</text>

  <!-- (6) PlanSyncService → Workspace FS (gray, dashed) -->
  <path d="M 1256 484 C 1270 484, 1280 540, 1284 540" fill="none" stroke="#62666d" stroke-width="1.2" stroke-dasharray="3 3" marker-end="url(#arrow-gray)"/>
  <text x="1273" y="528" font-size="10" fill="#8a8f98" font-family="ui-monospace, monospace" transform="rotate(90, 1273, 528)">checklist sync</text>

  <!-- (7) Claude CLI → Anthropic API (gray, vertical) -->
  <path d="M 1389 340 C 1389 600, 1389 690, 1389 720" fill="none" stroke="#62666d" stroke-width="1.2" marker-end="url(#arrow-gray)"/>
  <text x="1399" y="600" font-size="10" fill="#8a8f98" font-family="ui-monospace, monospace">messages.create</text>

  <!-- ═════════════════════════════════════════════════════════════
       FOOTER (subtle, off-canvas marker)
       ═════════════════════════════════════════════════════════════ -->
  <text x="80" y="1040" font-size="10" fill="#3e3e44" letter-spacing="0.04em">WorkAnywhere · architecture · Linear-inspired</text>
  <text x="1840" y="1040" font-size="10" fill="#3e3e44" text-anchor="end" font-family="ui-monospace, monospace">v0.1 · 2026-05</text>
</svg>